<?xml version="1.0" encoding="UTF-8" standalone="no"?>
<!-- Created with Inkscape (http://www.inkscape.org/) -->

<svg
   width="37.45892mm"
   height="36.784439mm"
   viewBox="0 0 37.45892 36.784439"
   version="1.1"
   id="svg1"
   xmlns:inkscape="http://www.inkscape.org/namespaces/inkscape"
   xmlns:sodipodi="http://sodipodi.sourceforge.net/DTD/sodipodi-0.dtd"
   xmlns="http://www.w3.org/2000/svg"
   xmlns:svg="http://www.w3.org/2000/svg">
  <sodipodi:namedview
     id="namedview1"
     pagecolor="#505050"
     bordercolor="#eeeeee"
     borderopacity="1"
     inkscape:showpageshadow="0"
     inkscape:pageopacity="0"
     inkscape:pagecheckerboard="0"
     inkscape:deskcolor="#505050"
     inkscape:document-units="mm">
    <inkscape:page
       x="8.7699013e-20"
       y="0"
       width="37.45892"
       height="36.784439"
       id="page2"
       margin="0"
       bleed="0" />
  </sodipodi:namedview>
  <defs
     id="defs1">
    <inkscape:path-effect
       effect="fillet_chamfer"
       id="path-effect3"
       is_visible="true"
       lpeversion="1"
       nodesatellites_param="F,0,0,1,0,0,0,1 @ F,0,0,1,0,0,0,1 @ F,0,0,1,0,0,0,1 @ F,0,0,1,0,0,0,1 @ F,0,0,1,0,0,0,1 @ F,0,0,1,0,0,0,1 @ F,0,0,1,0,0,0,1 @ F,0,0,1,0,1.8065122,0,1 @ F,0,1,1,0,0.73624725,0,1 @ F,0,0,1,0,0,0,1 @ F,0,0,1,0,0,0,1 @ F,0,0,1,0,0.73624725,0,1 @ F,0,0,1,0,1.8065122,0,1 @ F,0,0,1,0,0,0,1 @ F,0,0,1,0,0,0,1 @ F,0,0,1,0,0,0,1 @ F,0,0,1,0,0,0,1 @ F,0,0,1,0,0,0,1 @ F,0,0,1,0,0,0,1"
       radius="0"
       unit="px"
       method="auto"
       mode="F"
       chamfer_steps="1"
       flexible="false"
       use_knot_distance="true"
       apply_no_radius="true"
       apply_with_radius="true"
       only_selected="false"
       hide_knots="false" />
  </defs>
  <g
     inkscape:label="Layer 1"
     inkscape:groupmode="layer"
     id="layer1"
     transform="translate(-86.270532,-130.10777)">
    <path
       id="path3"
       style="display:inline;fill:none;fill-opacity:1;stroke:#000000;stroke-width:2.231;stroke-opacity:1;paint-order:stroke markers fill"
       d="m 75.652747,47.24001 c -1.131375,0 -2.262607,0.433778 -3.129525,1.300696 L 59.330229,61.733699 c -1.733836,1.733836 -1.733836,4.52573 0,6.259566 l 2.567802,2.567802 v 6.806304 c 0,2.452014 1.974072,4.426086 4.426086,4.426086 h 3.592125 a 1.8065122,1.8065122 135 0 0 1.806512,-1.806512 v -8.504112 c 0,-0.406618 -0.01282,-1.080934 0.143364,-1.453463 0.279144,-0.665835 0.936162,-1.13125 1.705619,-1.13125 h 4.162536 c 0.769444,0 1.426453,0.4654 1.705605,1.131217 0.156194,0.372544 0.143378,1.046878 0.143378,1.453496 v 8.504112 a 1.8065122,1.8065122 45 0 0 1.806512,1.806512 h 3.592125 c 2.452014,0 4.426086,-1.974072 4.426086,-4.426086 v -6.806304 l 2.567802,-2.567802 c 1.733836,-1.733836 1.733836,-4.52573 0,-6.259566 L 78.782788,48.540706 C 77.91587,47.673788 76.784122,47.24001 75.652747,47.24001 Z"
       sodipodi:nodetypes="sssscsscsssscsscssss"
       inkscape:path-effect="#path-effect3"
       inkscape:original-d="m 75.652747,47.24001 c -1.131375,0 -2.262607,0.433778 -3.129525,1.300696 L 59.330229,61.733699 c -1.733836,1.733836 -1.733836,4.52573 0,6.259566 l 2.567802,2.567802 v 6.806304 c 0,2.452014 1.974072,4.426086 4.426086,4.426086 h 5.398637 V 70.746586 c 0,-1.024073 0.82491,-1.848466 1.848983,-1.848466 h 4.162536 c 1.024073,0 1.848983,0.824393 1.848983,1.848466 v 11.046871 h 5.398637 c 2.452014,0 4.426086,-1.974072 4.426086,-4.426086 v -6.806304 l 2.567802,-2.567802 c 1.733836,-1.733836 1.733836,-4.52573 0,-6.259566 L 78.782788,48.540706 C 77.91587,47.673788 76.784122,47.24001 75.652747,47.24001 Z"
       transform="translate(29.346995,83.983267)"
       inkscape:export-filename="home.svg"
       inkscape:export-xdpi="96"
       inkscape:export-ydpi="96" />
  </g>
</svg>
