<?xml version="1.0" encoding="UTF-8" standalone="no"?>
<!-- Created with Inkscape (http://www.inkscape.org/) -->

<svg
   width="43.28334mm"
   height="25.374098mm"
   viewBox="0 0 43.28334 25.374098"
   version="1.1"
   id="svg1"
   xmlns:inkscape="http://www.inkscape.org/namespaces/inkscape"
   xmlns:sodipodi="http://sodipodi.sourceforge.net/DTD/sodipodi-0.dtd"
   xmlns="http://www.w3.org/2000/svg"
   xmlns:svg="http://www.w3.org/2000/svg">
  <sodipodi:namedview
     id="namedview1"
     pagecolor="#505050"
     bordercolor="#eeeeee"
     borderopacity="1"
     inkscape:showpageshadow="0"
     inkscape:pageopacity="0"
     inkscape:pagecheckerboard="0"
     inkscape:deskcolor="#505050"
     inkscape:document-units="mm">
    <inkscape:page
       x="-9.9525183e-38"
       y="0"
       width="43.28334"
       height="25.374098"
       id="page2"
       margin="0"
       bleed="0" />
  </sodipodi:namedview>
  <defs
     id="defs1">
    <inkscape:path-effect
       effect="fillet_chamfer"
       id="path-effect16"
       is_visible="true"
       lpeversion="1"
       nodesatellites_param="F,0,0,1,0,1.4828963,0,1 @ F,0,0,1,0,0,0,1 @ F,0,0,1,0,2.1271049,0,1 @ F,0,0,1,0,0,0,1 @ F,0,1,1,0,2.1271049,0,1 @ F,0,0,1,0,0,0,1 @ F,0,0,1,0,0,0,1 @ F,0,0,1,0,1.4828963,0,1 @ F,0,0,1,0,0,0,1 @ F,0,0,1,0,1.1293417,0,1 @ F,0,0,1,0,0,0,1 @ F,0,0,1,0,1.1293417,0,1 @ F,0,0,1,0,0,0,1 @ F,0,0,1,0,1.4828963,0,1"
       radius="0"
       unit="px"
       method="auto"
       mode="F"
       chamfer_steps="1"
       flexible="false"
       use_knot_distance="true"
       apply_no_radius="true"
       apply_with_radius="true"
       only_selected="false"
       hide_knots="false" />
  </defs>
  <g
     inkscape:label="Layer 1"
     inkscape:groupmode="layer"
     id="layer1"
     transform="translate(-159.77491,-135.81292)">
    <path
       style="fill:none;fill-opacity:1;stroke:#000000;stroke-width:2.3251;stroke-opacity:1;paint-order:stroke markers fill"
       d="m 168.38022,137.34012 c -0.90477,0.49916 -1.51495,1.46178 -1.51495,2.57227 v 0.48566 c 0,1.17476 -0.9877,2.10058 -2.0797,2.51658 -2.25111,0.85756 -3.84815,3.03617 -3.84811,5.58535 -4e-5,2.54918 1.597,4.72779 3.84812,5.58536 1.09199,0.41599 2.07969,1.34181 2.07969,2.51657 v 0.48566 c 0,1.62679 1.30947,2.93625 2.93625,2.93625 h 27.67501 c 0.81898,0 2.19472,0.0274 2.9042,-0.36397 0.90478,-0.49917 1.51496,-1.46179 1.51496,-2.57228 v -1.50202 c 0,-0.62372 -0.51019,-1.15869 -1.11091,-1.32305 -2.54971,-0.69763 -4.3931,-3.0286 -4.39315,-5.76252 5e-5,-2.73386 1.84336,-5.0648 4.393,-5.76248 0.60079,-0.1644 1.11106,-0.69937 1.11106,-1.32309 v -1.50202 c 0,-1.11047 -0.61016,-2.07308 -1.51491,-2.57225 -0.7095,-0.39145 -2.08527,-0.364 -2.90425,-0.364 h -26.19211 c -0.81898,0 -2.19472,-0.0274 -2.9042,0.36398 z"
       id="path16"
       inkscape:original-d="m 169.80152,136.97614 c -1.62678,0 -2.93625,1.30946 -2.93625,2.93625 v 2.61276 a 5.9749322,5.9749322 0 0 0 -5.92781,5.97483 5.9749322,5.9749322 0 0 0 5.92781,5.97483 v 2.61276 c 0,1.62679 1.30947,2.93625 2.93625,2.93625 h 29.15791 c 1.62679,0 2.93626,-1.30946 2.93626,-2.93625 v -2.63136 a 5.9749322,5.9749322 0 0 1 -5.50406,-5.95623 5.9749322,5.9749322 0 0 1 5.50406,-5.95623 v -2.63136 c 0,-1.62679 -1.30947,-2.93625 -2.93626,-2.93625 z"
       inkscape:path-effect="#path-effect16" />
    <rect
       style="fill:none;fill-opacity:1;stroke:#000000;stroke-width:2.231;stroke-linecap:round;stroke-linejoin:round;stroke-dasharray:2.231, 6.693;stroke-dashoffset:0;stroke-opacity:1;paint-order:stroke markers fill"
       id="rect26"
       width="0.061405513"
       height="22.290634"
       x="189.25526"
       y="138.42497"
       ry="0.15351661"
       inkscape:export-filename="ticket.svg"
       inkscape:export-xdpi="96"
       inkscape:export-ydpi="96" />
  </g>
</svg>
